<svg width="50" height="50" viewBox="0 0 50 50" fill="none" xmlns="http://www.w3.org/2000/svg">
<path d="M28.6739 24.9433L49.3989 4.27377C49.8084 3.79679 50.0224 3.18325 49.9981 2.55574C49.9738 1.92823 49.713 1.33298 49.2678 0.888938C48.8225 0.444892 48.2257 0.184758 47.5965 0.16052C46.9673 0.136282 46.3521 0.349726 45.8739 0.758197L25.1489 21.4278L4.42386 0.733263C3.9531 0.263763 3.31461 0 2.64886 0C1.9831 0 1.34462 0.263763 0.873859 0.733263C0.403099 1.20276 0.138629 1.83954 0.138629 2.50352C0.138629 3.16749 0.403099 3.80427 0.873859 4.27377L21.6239 24.9433L0.873859 45.6129C0.612154 45.8364 0.399604 46.1115 0.249545 46.4208C0.0994871 46.7301 0.0151617 47.0671 0.00186298 47.4105C-0.0114358 47.7538 0.0465779 48.0962 0.172264 48.4162C0.297951 48.7362 0.488596 49.0267 0.732233 49.2697C0.97587 49.5127 1.26724 49.7028 1.58805 49.8282C1.90886 49.9535 2.25219 50.0114 2.59649 49.9981C2.94079 49.9849 3.27862 49.9008 3.58878 49.7511C3.89895 49.6015 4.17474 49.3895 4.39886 49.1285L25.1489 28.4589L45.8739 49.1285C46.3521 49.537 46.9673 49.7504 47.5965 49.7262C48.2257 49.7019 48.8225 49.4418 49.2678 48.9977C49.713 48.5537 49.9738 47.9584 49.9981 47.3309C50.0224 46.7034 49.8084 46.0899 49.3989 45.6129L28.6739 24.9433Z" fill="black"/>
</svg>
