<svg width="93" height="95" viewBox="0 0 93 95" fill="none" xmlns="http://www.w3.org/2000/svg">
<rect width="66.8935" height="68.5799" fill="#EB3A22"/>
<rect x="33.7278" y="34.2899" width="58.4615" height="60.7101" fill="#E7C9C9"/>
<path d="M29.317 24.7221H39.749C44.997 24.7221 48.837 25.8101 51.269 27.9861C53.7437 30.1195 54.981 33.6181 54.981 38.4821C54.981 45.1381 52.8477 49.1701 48.581 50.5781L55.941 76.5621H48.965L42.181 52.2421H36.549V76.5621H29.317V24.7221ZM39.301 47.0581C42.4157 47.0581 44.6343 46.4395 45.957 45.2021C47.3223 43.9648 48.005 41.7248 48.005 38.4821C48.005 36.3488 47.7703 34.6848 47.301 33.4901C46.8317 32.2528 45.9997 31.3568 44.805 30.8021C43.6103 30.2048 41.925 29.9061 39.749 29.9061H36.549V47.0581H39.301Z" fill="#1C3841"/>
</svg>
