<svg width="1162" height="900" viewBox="0 0 1162 900" fill="none" xmlns="http://www.w3.org/2000/svg">
<path d="M1231.09 34.6805C1073.36 -25.0575 561.697 -158.175 537 230.252C528.241 368.002 620.013 523.864 450.144 589.918C337.613 683.722 335.992 433.461 118.822 666.603C-98.3485 899.744 199.814 960.104 376.041 961.142C603.782 916.422 1034.99 785.189 937.881 618.007C816.501 409.03 1218.2 412.251 1323.66 230.253C1408.02 84.6541 1297.1 39.2051 1231.09 34.6805Z" fill="#1C3841" fill-opacity="0.79"/>
<path d="M1136.38 210.113C1017.05 164.918 644.707 76.2395 626.022 370.103C626.022 472 674.07 580.204 545.556 630.177C460.421 701.144 459.194 511.81 294.894 688.192C130.595 864.575 356.169 910.241 489.494 911.026C661.79 877.193 988.017 777.909 914.553 651.428C822.723 493.326 1126.63 495.763 1206.41 358.073C1270.24 247.92 1186.32 213.536 1136.38 210.113Z" fill="#293F46" fill-opacity="0.63"/>
</svg>
