<svg width="56" height="56" viewBox="0 0 56 56" fill="none" xmlns="http://www.w3.org/2000/svg">
<path d="M55.8318 51.9748L37.6528 33.7959C40.4738 30.1489 41.9998 25.6899 41.9998 20.9999C41.9998 15.3859 39.8088 10.122 35.8468 6.15297C31.8849 2.18399 26.6069 0 20.9999 0C15.3929 0 10.115 2.19099 6.15297 6.15297C2.18399 10.115 0 15.3859 0 20.9999C0 26.6069 2.19099 31.8849 6.15297 35.8468C10.115 39.8158 15.3859 41.9998 20.9999 41.9998C25.6899 41.9998 30.1419 40.4738 33.7889 37.6598L51.9678 55.8318C52.0211 55.8851 52.0844 55.9274 52.154 55.9563C52.2237 55.9851 52.2984 56 52.3738 56C52.4492 56 52.5238 55.9851 52.5935 55.9563C52.6632 55.9274 52.7265 55.8851 52.7798 55.8318L55.8318 52.7868C55.8851 52.7335 55.9274 52.6702 55.9563 52.6005C55.9851 52.5308 56 52.4562 56 52.3808C56 52.3054 55.9851 52.2307 55.9563 52.161C55.9274 52.0914 55.8851 52.0281 55.8318 51.9748V51.9748ZM32.0879 32.0879C29.1199 35.0488 25.1859 36.6798 20.9999 36.6798C16.8139 36.6798 12.8799 35.0488 9.91196 32.0879C6.95097 29.1199 5.31998 25.1859 5.31998 20.9999C5.31998 16.8139 6.95097 12.8729 9.91196 9.91196C12.8799 6.95097 16.8139 5.31998 20.9999 5.31998C25.1859 5.31998 29.1269 6.94397 32.0879 9.91196C35.0488 12.8799 36.6798 16.8139 36.6798 20.9999C36.6798 25.1859 35.0488 29.1269 32.0879 32.0879Z" fill="black"/>
</svg>
